<mxfile host="app.diagrams.net" modified="2023-05-01T09:46:10.180Z" agent="Mozilla/5.0 (Windows NT 10.0; Win64; x64) AppleWebKit/537.36 (KHTML, like Gecko) Chrome/112.0.0.0 Safari/537.36" etag="dHGb_SjbN7Hzeb8l5C_9" version="21.2.3" type="device">
  <diagram name="Page-1" id="SFD5FbLWe2inRmjffrm_">
    <mxGraphModel dx="1434" dy="699" grid="1" gridSize="10" guides="1" tooltips="1" connect="1" arrows="1" fold="1" page="1" pageScale="1" pageWidth="850" pageHeight="1100" math="0" shadow="0">
      <root>
        <mxCell id="0" />
        <mxCell id="1" parent="0" />
        <mxCell id="dXeJd9fdskiibIoUs9Um-17" value="" style="group;dashed=1;strokeColor=none;" parent="1" vertex="1" connectable="0">
          <mxGeometry x="100" y="340" width="280" height="460" as="geometry" />
        </mxCell>
        <mxCell id="dXeJd9fdskiibIoUs9Um-1" value="" style="whiteSpace=wrap;html=1;strokeWidth=3;strokeColor=#009900;" parent="dXeJd9fdskiibIoUs9Um-17" vertex="1">
          <mxGeometry width="280" height="459.99999999999994" as="geometry" />
        </mxCell>
        <mxCell id="dXeJd9fdskiibIoUs9Um-2" value="&lt;font size=&quot;1&quot; color=&quot;#009900&quot; style=&quot;&quot;&gt;&lt;b style=&quot;font-size: 20px;&quot;&gt;&lt;i&gt;home&lt;/i&gt;&lt;/b&gt;&lt;/font&gt;" style="text;html=1;strokeColor=none;fillColor=none;align=left;verticalAlign=middle;whiteSpace=wrap;rounded=0;" parent="dXeJd9fdskiibIoUs9Um-17" vertex="1">
          <mxGeometry x="12" y="10.001639344262287" width="125" height="22.62295081967213" as="geometry" />
        </mxCell>
        <mxCell id="dXeJd9fdskiibIoUs9Um-3" value="&lt;font style=&quot;&quot;&gt;&lt;i style=&quot;font-size: 13px;&quot;&gt;&amp;lt;&amp;lt;a href=&quot;/buy&quot;&amp;gt;&amp;gt;&lt;/i&gt;&lt;br&gt;&lt;font style=&quot;font-size: 15px;&quot;&gt;&lt;b&gt;Link to BUY page&lt;/b&gt;&lt;/font&gt;&lt;/font&gt;" style="rounded=1;whiteSpace=wrap;html=1;strokeWidth=3;strokeColor=#FF8000;" parent="1" vertex="1">
          <mxGeometry x="165" y="385" width="150" height="120" as="geometry" />
        </mxCell>
        <mxCell id="dXeJd9fdskiibIoUs9Um-4" value="&lt;font style=&quot;&quot;&gt;&lt;i style=&quot;font-size: 13px;&quot;&gt;&amp;lt;&amp;lt;a href=&quot;/sell&quot;&amp;gt;&amp;gt;&lt;/i&gt;&lt;br&gt;&lt;font style=&quot;font-size: 15px;&quot;&gt;&lt;b&gt;Link to SELL page&lt;/b&gt;&lt;/font&gt;&lt;/font&gt;" style="rounded=1;whiteSpace=wrap;html=1;strokeWidth=3;strokeColor=#FF8000;" parent="1" vertex="1">
          <mxGeometry x="165" y="520" width="150" height="120" as="geometry" />
        </mxCell>
        <mxCell id="dXeJd9fdskiibIoUs9Um-5" value="&lt;font style=&quot;&quot;&gt;&lt;i style=&quot;font-size: 13px;&quot;&gt;&amp;lt;&amp;lt;a href=&quot;/logout&quot;&amp;gt;&amp;gt;&lt;/i&gt;&lt;br&gt;&lt;font style=&quot;font-size: 15px;&quot;&gt;&lt;b&gt;Link to logout&lt;/b&gt;&lt;/font&gt;&lt;/font&gt;" style="rounded=1;whiteSpace=wrap;html=1;strokeWidth=3;strokeColor=#FF8000;" parent="1" vertex="1">
          <mxGeometry x="165" y="660" width="150" height="120" as="geometry" />
        </mxCell>
        <mxCell id="dXeJd9fdskiibIoUs9Um-7" value="" style="ellipse;whiteSpace=wrap;html=1;aspect=fixed;strokeWidth=2;fillColor=#6666FF;strokeColor=#6666FF;" parent="1" vertex="1">
          <mxGeometry x="305" y="606" width="20" height="20" as="geometry" />
        </mxCell>
        <mxCell id="dXeJd9fdskiibIoUs9Um-8" value="" style="ellipse;whiteSpace=wrap;html=1;aspect=fixed;strokeWidth=2;fillColor=#6666FF;strokeColor=#6666FF;" parent="1" vertex="1">
          <mxGeometry x="305" y="745" width="20" height="20" as="geometry" />
        </mxCell>
        <mxCell id="dXeJd9fdskiibIoUs9Um-10" value="" style="endArrow=none;html=1;rounded=0;exitX=1;exitY=0.5;exitDx=0;exitDy=0;strokeColor=#6666FF;strokeWidth=2;startArrow=classic;startFill=1;entryX=1;entryY=0.5;entryDx=0;entryDy=0;" parent="1" edge="1">
          <mxGeometry width="50" height="50" relative="1" as="geometry">
            <mxPoint x="480" y="615.66" as="sourcePoint" />
            <mxPoint x="325" y="615.66" as="targetPoint" />
          </mxGeometry>
        </mxCell>
        <mxCell id="dXeJd9fdskiibIoUs9Um-11" value="" style="endArrow=none;html=1;rounded=0;exitX=1;exitY=0.5;exitDx=0;exitDy=0;strokeColor=#6666FF;strokeWidth=2;startArrow=classic;startFill=1;entryX=1;entryY=0.5;entryDx=0;entryDy=0;" parent="1" edge="1">
          <mxGeometry width="50" height="50" relative="1" as="geometry">
            <mxPoint x="480" y="754.66" as="sourcePoint" />
            <mxPoint x="325" y="754.66" as="targetPoint" />
          </mxGeometry>
        </mxCell>
        <mxCell id="dXeJd9fdskiibIoUs9Um-13" value="&lt;font style=&quot;&quot;&gt;&lt;i style=&quot;font-size: 13px;&quot;&gt;&amp;lt;&amp;lt;HttpServlet&amp;gt;&amp;gt;&lt;/i&gt;&lt;br&gt;&lt;span style=&quot;font-size: 15px;&quot;&gt;&lt;b&gt;sell&lt;/b&gt;&lt;/span&gt;&lt;br&gt;&lt;/font&gt;" style="shape=parallelogram;perimeter=parallelogramPerimeter;whiteSpace=wrap;html=1;fixedSize=1;strokeColor=#FF00FF;strokeWidth=2;" parent="1" vertex="1">
          <mxGeometry x="470" y="586" width="140" height="60" as="geometry" />
        </mxCell>
        <mxCell id="dXeJd9fdskiibIoUs9Um-14" value="&lt;font style=&quot;&quot;&gt;&lt;i style=&quot;font-size: 13px;&quot;&gt;&amp;lt;&amp;lt;HttpServlet&amp;gt;&amp;gt;&lt;/i&gt;&lt;br&gt;&lt;span style=&quot;font-size: 15px;&quot;&gt;&lt;b&gt;logout&lt;/b&gt;&lt;/span&gt;&lt;br&gt;&lt;/font&gt;" style="shape=parallelogram;perimeter=parallelogramPerimeter;whiteSpace=wrap;html=1;fixedSize=1;strokeColor=#FF00FF;strokeWidth=2;" parent="1" vertex="1">
          <mxGeometry x="470" y="720" width="140" height="60" as="geometry" />
        </mxCell>
        <mxCell id="dXeJd9fdskiibIoUs9Um-23" value="" style="group" parent="1" vertex="1" connectable="0">
          <mxGeometry x="700" y="570" width="150" height="100" as="geometry" />
        </mxCell>
        <mxCell id="dXeJd9fdskiibIoUs9Um-24" value="" style="whiteSpace=wrap;html=1;strokeWidth=3;strokeColor=#009900;" parent="dXeJd9fdskiibIoUs9Um-23" vertex="1">
          <mxGeometry width="150" height="100" as="geometry" />
        </mxCell>
        <mxCell id="FyGiG4cSLI1vQrXFt7Kd-23" value="&lt;font size=&quot;1&quot; color=&quot;#009900&quot; style=&quot;&quot;&gt;&lt;b style=&quot;font-size: 20px;&quot;&gt;home&lt;/b&gt;&lt;/font&gt;" style="text;html=1;strokeColor=none;fillColor=none;align=left;verticalAlign=middle;whiteSpace=wrap;rounded=0;" parent="dXeJd9fdskiibIoUs9Um-23" vertex="1">
          <mxGeometry x="10" y="6" width="60" height="30" as="geometry" />
        </mxCell>
        <mxCell id="dXeJd9fdskiibIoUs9Um-26" value="" style="group" parent="1" vertex="1" connectable="0">
          <mxGeometry x="700" y="700" width="150" height="100" as="geometry" />
        </mxCell>
        <mxCell id="dXeJd9fdskiibIoUs9Um-27" value="" style="whiteSpace=wrap;html=1;strokeWidth=3;strokeColor=#009900;" parent="dXeJd9fdskiibIoUs9Um-26" vertex="1">
          <mxGeometry width="150" height="100" as="geometry" />
        </mxCell>
        <mxCell id="dXeJd9fdskiibIoUs9Um-29" value="" style="endArrow=none;html=1;rounded=0;strokeColor=#6666FF;strokeWidth=2;startArrow=classic;startFill=1;entryX=1;entryY=0.5;entryDx=0;entryDy=0;" parent="1" edge="1">
          <mxGeometry width="50" height="50" relative="1" as="geometry">
            <mxPoint x="700" y="616" as="sourcePoint" />
            <mxPoint x="600" y="615.6600000000001" as="targetPoint" />
          </mxGeometry>
        </mxCell>
        <mxCell id="dXeJd9fdskiibIoUs9Um-30" value="" style="endArrow=none;html=1;rounded=0;strokeColor=#6666FF;strokeWidth=2;startArrow=classic;startFill=1;entryX=1;entryY=0.5;entryDx=0;entryDy=0;" parent="1" edge="1">
          <mxGeometry width="50" height="50" relative="1" as="geometry">
            <mxPoint x="700" y="755" as="sourcePoint" />
            <mxPoint x="600" y="754.6600000000001" as="targetPoint" />
          </mxGeometry>
        </mxCell>
        <mxCell id="FyGiG4cSLI1vQrXFt7Kd-8" value="" style="ellipse;whiteSpace=wrap;html=1;aspect=fixed;strokeWidth=2;fillColor=#6666FF;strokeColor=#6666FF;" parent="1" vertex="1">
          <mxGeometry x="305" y="470" width="20" height="20" as="geometry" />
        </mxCell>
        <mxCell id="FyGiG4cSLI1vQrXFt7Kd-9" value="" style="endArrow=none;html=1;rounded=0;exitX=1;exitY=0.5;exitDx=0;exitDy=0;strokeColor=#6666FF;strokeWidth=2;startArrow=classic;startFill=1;entryX=1;entryY=0.5;entryDx=0;entryDy=0;" parent="1" target="FyGiG4cSLI1vQrXFt7Kd-8" edge="1">
          <mxGeometry width="50" height="50" relative="1" as="geometry">
            <mxPoint x="480" y="480" as="sourcePoint" />
            <mxPoint x="370" y="600" as="targetPoint" />
          </mxGeometry>
        </mxCell>
        <mxCell id="FyGiG4cSLI1vQrXFt7Kd-10" value="&lt;font style=&quot;&quot;&gt;&lt;i style=&quot;font-size: 13px;&quot;&gt;&amp;lt;&amp;lt;HttpServlet&amp;gt;&amp;gt;&lt;/i&gt;&lt;br&gt;&lt;font style=&quot;font-size: 15px;&quot;&gt;&lt;b&gt;buy&lt;/b&gt;&lt;/font&gt;&lt;/font&gt;" style="shape=parallelogram;perimeter=parallelogramPerimeter;whiteSpace=wrap;html=1;fixedSize=1;strokeColor=#FF00FF;strokeWidth=2;" parent="1" vertex="1">
          <mxGeometry x="470" y="450" width="140" height="60" as="geometry" />
        </mxCell>
        <mxCell id="FyGiG4cSLI1vQrXFt7Kd-11" value="" style="group" parent="1" vertex="1" connectable="0">
          <mxGeometry x="700" y="430" width="150" height="100" as="geometry" />
        </mxCell>
        <mxCell id="FyGiG4cSLI1vQrXFt7Kd-12" value="" style="whiteSpace=wrap;html=1;strokeWidth=3;strokeColor=#009900;" parent="FyGiG4cSLI1vQrXFt7Kd-11" vertex="1">
          <mxGeometry width="150" height="100" as="geometry" />
        </mxCell>
        <mxCell id="FyGiG4cSLI1vQrXFt7Kd-22" value="&lt;font size=&quot;1&quot; color=&quot;#009900&quot; style=&quot;&quot;&gt;&lt;b style=&quot;font-size: 20px;&quot;&gt;buy&lt;/b&gt;&lt;/font&gt;" style="text;html=1;strokeColor=none;fillColor=none;align=left;verticalAlign=middle;whiteSpace=wrap;rounded=0;" parent="FyGiG4cSLI1vQrXFt7Kd-11" vertex="1">
          <mxGeometry x="10" y="10" width="60" height="30" as="geometry" />
        </mxCell>
        <mxCell id="FyGiG4cSLI1vQrXFt7Kd-14" value="" style="endArrow=none;html=1;rounded=0;strokeColor=#6666FF;strokeWidth=2;startArrow=classic;startFill=1;entryX=1;entryY=0.5;entryDx=0;entryDy=0;" parent="1" edge="1">
          <mxGeometry width="50" height="50" relative="1" as="geometry">
            <mxPoint x="700" y="480" as="sourcePoint" />
            <mxPoint x="600" y="479.66" as="targetPoint" />
          </mxGeometry>
        </mxCell>
        <mxCell id="dXeJd9fdskiibIoUs9Um-28" value="&lt;font size=&quot;1&quot; color=&quot;#009900&quot; style=&quot;&quot;&gt;&lt;b style=&quot;font-size: 20px;&quot;&gt;&lt;i&gt;index.html&lt;/i&gt;&lt;/b&gt;&lt;/font&gt;" style="text;html=1;strokeColor=none;fillColor=none;align=left;verticalAlign=middle;whiteSpace=wrap;rounded=0;" parent="1" vertex="1">
          <mxGeometry x="709" y="705" width="60" height="30" as="geometry" />
        </mxCell>
      </root>
    </mxGraphModel>
  </diagram>
</mxfile>
